<svg width="99" height="97" viewBox="0 0 99 97" fill="none" xmlns="http://www.w3.org/2000/svg">
<path d="M49.4999 57.1391C54.3695 57.1391 58.3171 53.2712 58.3171 48.5C58.3171 43.7288 54.3695 39.8609 49.4999 39.8609C44.6303 39.8609 40.6827 43.7288 40.6827 48.5C40.6827 53.2712 44.6303 57.1391 49.4999 57.1391Z" fill="#61DAFB"/>
<path d="M82.9898 34.2531C81.2882 33.6469 79.5093 33.0406 77.6531 32.5102C78.1171 30.6914 78.5039 28.8727 78.8132 27.1297C80.4375 17.1266 78.6585 10.0789 73.7085 7.35078C72.239 6.51719 70.6148 6.13828 68.7585 6.13828C63.3445 6.13828 56.4609 10.0789 49.5 16.6719C42.539 10.0789 35.6554 6.13828 30.2414 6.13828C28.3851 6.13828 26.7609 6.51719 25.2914 7.35078C20.3414 10.1547 18.5625 17.2023 20.1867 27.1297C20.496 28.8727 20.8828 30.6914 21.3468 32.5102C19.4906 33.0406 17.7117 33.5711 16.0101 34.2531C6.34214 37.8906 1.08276 42.8922 1.08276 48.5C1.08276 54.1078 6.41948 59.1094 16.0101 62.7469C17.7117 63.3531 19.4906 63.9594 21.3468 64.4898C20.8828 66.3086 20.496 68.1273 20.1867 69.8703C18.5625 79.8734 20.3414 86.9211 25.2914 89.6492C26.7609 90.4828 28.3851 90.8617 30.2414 90.8617C35.7328 90.8617 42.6164 86.9211 49.5 80.3281C56.4609 86.9211 63.3445 90.8617 68.7585 90.8617C70.6148 90.8617 72.239 90.4828 73.7085 89.6492C78.6585 86.8453 80.4375 79.7977 78.8132 69.8703C78.5039 68.1273 78.1171 66.3086 77.6531 64.4898C79.5093 63.9594 81.2882 63.4289 82.9898 62.7469C92.6578 59.1094 97.9171 54.1078 97.9171 48.5C97.9171 42.8922 92.6578 37.8906 82.9898 34.2531ZM71.5429 11.1398C74.714 12.9586 75.7968 18.5664 74.482 26.5234C74.25 28.1148 73.8632 29.782 73.3992 31.525C69.3773 30.6156 65.1234 30.0094 60.6375 29.6305C58.0078 25.993 55.3007 22.7344 52.5937 19.7789C58.3171 14.2469 64.1179 10.4578 68.8359 10.4578C69.8414 10.4578 70.7695 10.6852 71.5429 11.1398ZM62.8804 56.0781C61.4882 58.5031 59.864 60.9281 58.1624 63.3531C55.3007 63.5805 52.439 63.6563 49.5 63.6563C46.4835 63.6563 43.6218 63.5805 40.8374 63.3531C39.1359 60.9281 37.589 58.5031 36.1968 56.0781C34.7273 53.5773 33.3351 51.0008 32.0976 48.5C33.3351 45.9992 34.7273 43.4227 36.1968 40.9219C37.589 38.4969 39.2132 36.0719 40.9148 33.6469C43.7765 33.4195 46.6382 33.3438 49.5773 33.3438C52.5937 33.3438 55.4554 33.4195 58.2398 33.6469C59.9414 36.0719 61.4882 38.4969 62.8804 40.9219C64.35 43.4227 65.7421 45.9992 66.9796 48.5C65.6648 51.0008 64.35 53.5016 62.8804 56.0781ZM69.2999 53.5773C70.4601 56.2297 71.3882 58.8063 72.239 61.3828C69.6093 61.9891 66.825 62.4438 63.8859 62.8227C64.814 61.3828 65.8195 59.8672 66.6703 58.2758C67.5984 56.6844 68.4492 55.093 69.2999 53.5773ZM49.5 74.1141C47.6437 72.1438 45.8648 70.0219 44.1632 67.8242C45.9421 67.9 47.721 67.9758 49.5 67.9758C51.2789 67.9758 53.0578 67.9 54.8367 67.8242C53.1351 70.0219 51.3562 72.1438 49.5 74.1141ZM35.114 62.7469C32.175 62.368 29.3906 61.9133 26.7609 61.307C27.6117 58.8063 28.5398 56.1539 29.7 53.5016C30.5507 55.0172 31.4015 56.6086 32.3296 58.1242C33.2578 59.7914 34.1859 61.2313 35.114 62.7469ZM29.7 43.4227C28.5398 40.7703 27.6117 38.1938 26.7609 35.6172C29.3906 35.0109 32.175 34.5563 35.114 34.1773C34.1859 35.6172 33.1804 37.1328 32.3296 38.7242C31.4015 40.3156 30.5507 41.907 29.7 43.4227ZM49.5 22.8859C51.3562 24.8563 53.1351 26.9781 54.8367 29.1758C53.0578 29.1 51.2789 29.0242 49.5 29.0242C47.721 29.0242 45.9421 29.1 44.1632 29.1758C45.8648 26.9781 47.6437 24.8563 49.5 22.8859ZM66.6703 38.8L63.8859 34.2531C66.825 34.632 69.6093 35.0867 72.239 35.693C71.3882 38.1938 70.4601 40.8461 69.2999 43.4984C68.4492 41.907 67.5984 40.3156 66.6703 38.8ZM24.5179 26.5234C23.2031 18.5664 24.2859 12.9586 27.457 11.1398C28.2304 10.6852 29.1585 10.4578 30.164 10.4578C34.8046 10.4578 40.6054 14.1711 46.4062 19.7789C43.6992 22.6586 40.9921 25.993 38.3624 29.6305C33.8765 30.0094 29.6226 30.6914 25.6007 31.525C25.1367 29.782 24.8273 28.1148 24.5179 26.5234ZM5.41401 48.5C5.41401 44.9383 9.82261 41.1492 17.557 38.3453C19.1039 37.7391 20.8054 37.2086 22.507 36.7539C23.7445 40.543 25.2914 44.5594 27.1476 48.5758C25.2914 52.5922 23.6671 56.5328 22.507 60.3219C11.8335 57.2906 5.41401 52.7438 5.41401 48.5ZM27.457 85.8602C24.2859 84.0414 23.2031 78.4336 24.5179 70.4766C24.75 68.8852 25.1367 67.218 25.6007 65.475C29.6226 66.3844 33.8765 66.9906 38.3624 67.3695C40.9921 71.007 43.6992 74.2656 46.4062 77.2211C40.6828 82.7531 34.882 86.5422 30.164 86.5422C29.1585 86.5422 28.2304 86.3148 27.457 85.8602ZM74.482 70.4766C75.7968 78.4336 74.714 84.0414 71.5429 85.8602C70.7695 86.3148 69.8414 86.5422 68.8359 86.5422C64.1953 86.5422 58.3945 82.8289 52.5937 77.2211C55.3007 74.3414 58.0078 71.007 60.6375 67.3695C65.1234 66.9906 69.3773 66.3086 73.3992 65.475C73.8632 67.218 74.1726 68.8852 74.482 70.4766ZM81.4429 58.6547C79.896 59.2609 78.1945 59.7914 76.4929 60.2461C75.2554 56.457 73.7085 52.4406 71.8523 48.4242C73.7085 44.4078 75.3328 40.4672 76.4929 36.6781C87.1664 39.7094 93.5859 44.2563 93.5859 48.5C93.5859 52.0617 89.1 55.8508 81.4429 58.6547Z" fill="#61DAFB"/>
</svg>
