<svg width="97" height="97" viewBox="0 0 97 97" fill="none" xmlns="http://www.w3.org/2000/svg">
<path d="M48.503 19.4015C35.5695 19.4015 27.4889 25.8657 24.2531 38.7992C29.1015 32.3343 34.7616 29.9101 41.2265 31.5265C44.9178 32.4465 47.5558 35.1231 50.4772 38.0892C55.2317 42.9142 60.7349 48.5 72.7531 48.5C85.6859 48.5 93.7672 42.0351 97.0031 29.0985C92.1538 35.5672 86.4945 37.9914 80.0288 36.375C76.3383 35.4543 73.7034 32.7784 70.7782 29.8123C66.0267 24.9874 60.525 19.4015 48.503 19.4015ZM24.2531 48.5C11.3202 48.5 3.23891 54.9649 0.00305176 67.9015C4.85154 61.4328 10.5109 59.0086 16.9765 60.625C20.6678 61.5457 23.3058 64.2216 26.2272 67.1877C30.9817 72.0127 36.4849 77.5985 48.503 77.5985C61.4359 77.5985 69.5172 71.1343 72.7531 58.2008C67.9038 64.6657 62.2445 67.0899 55.7788 65.4735C52.0883 64.5535 49.4533 61.8769 46.5282 58.9108C41.7767 54.0858 36.275 48.5 24.2531 48.5Z" fill="#38B2AC"/>
</svg>
