<svg width="103" height="103" viewBox="0 0 103 103" fill="none" xmlns="http://www.w3.org/2000/svg">
<path d="M55.7918 77.25C55.7918 79.6202 53.8704 81.5417 51.5002 81.5417C49.1299 81.5417 47.2085 79.6202 47.2085 77.25C47.2085 74.8798 49.1299 72.9583 51.5002 72.9583C53.8704 72.9583 55.7918 74.8798 55.7918 77.25Z" fill="white"/>
<path fill-rule="evenodd" clip-rule="evenodd" d="M51.4998 8.58334C53.0584 8.58334 54.4945 9.42834 55.2514 10.7908L98.1681 88.0408C98.9066 89.3701 98.8865 90.9909 98.1154 92.3014C97.3442 93.612 95.9371 94.4167 94.4165 94.4167H8.58317C7.06255 94.4167 5.65546 93.612 4.88431 92.3014C4.11316 90.9909 4.0931 89.3701 4.83158 88.0408L47.7482 10.7908C48.5052 9.42834 49.9412 8.58334 51.4998 8.58334ZM15.8769 85.8334H87.1227L51.4998 21.7121L15.8769 85.8334ZM51.4998 38.625C53.8701 38.625 55.7915 40.5465 55.7915 42.9167V60.0833C55.7915 62.4536 53.8701 64.375 51.4998 64.375C49.1296 64.375 47.2082 62.4536 47.2082 60.0833V42.9167C47.2082 40.5465 49.1296 38.625 51.4998 38.625Z" fill="white"/>
</svg>
