<svg width="86" height="86" viewBox="0 0 86 86" fill="none" xmlns="http://www.w3.org/2000/svg">
<path d="M42.8684 0C19.1934 0 0 19.1928 0 42.8679C0 66.544 19.1934 85.7354 42.8684 85.7354C66.5461 85.7354 85.7374 66.544 85.7374 42.8679C85.7374 19.1944 66.5461 0.00204761 42.8679 0.00204761L42.8684 0ZM62.5276 61.8279C61.7598 63.0871 60.1114 63.4864 58.8521 62.7135C48.7871 56.5655 36.1164 55.1731 21.1944 58.5824C19.7565 58.91 18.3231 58.009 17.9955 56.5706C17.6663 55.1321 18.5637 53.6988 20.0052 53.3712C36.335 49.6389 50.3422 51.2468 61.642 58.1524C62.9013 58.9254 63.3006 60.5686 62.5276 61.8279ZM67.7746 50.1539C66.8071 51.728 64.7493 52.2245 63.1777 51.257C51.6548 44.1728 34.0898 42.1216 20.4603 46.2588C18.6927 46.7927 16.8258 45.7965 16.2893 44.032C15.7569 42.2644 16.7536 40.4011 18.5182 39.8636C34.0867 35.1397 53.4413 37.4279 66.674 45.5595C68.2456 46.527 68.7421 48.5844 67.7746 50.1539ZM68.2251 37.9992C54.4088 29.7929 31.6137 29.0383 18.4224 33.0419C16.3042 33.6844 14.0641 32.4885 13.4221 30.3703C12.7802 28.251 13.975 26.0124 16.0948 25.3685C31.2374 20.7716 56.4104 21.6597 72.3173 31.1028C74.2267 32.2336 74.8512 34.6943 73.7199 36.5971C72.5937 38.5024 70.1263 39.1305 68.2272 37.9992H68.2251Z" fill="#1ED760"/>
</svg>
