<svg width="97" height="97" viewBox="0 0 97 97" fill="none" xmlns="http://www.w3.org/2000/svg">
<path d="M6.63843 0.757812L14.2582 86.302L48.4492 95.8352L82.7357 86.2671L90.3615 0.757812H6.63843ZM74.5316 20.3564L71.9952 48.8539L72.0028 49.0077L71.9922 49.3616V49.3586L70.1901 69.2845L69.9916 71.0548L48.5 76.9991V76.9998L48.4833 77.0142L27.0289 71.0366L25.5762 54.5625H36.0969L36.8433 62.9394L48.503 66.0994L48.5 66.1055V66.104L60.2029 62.8992L61.4396 49.2578H36.9752L36.7653 46.9518L36.2871 41.5493L36.0362 38.6484H62.3695L63.3274 28.0391H23.2194L23.0095 25.7346L22.532 20.3306L22.2804 17.4297H74.7824L74.5316 20.3564Z" fill="#1572B6"/>
</svg>
