<svg width="97" height="97" viewBox="0 0 97 97" fill="none" xmlns="http://www.w3.org/2000/svg">
<path d="M48.0385 9.28169C44.839 9.29684 41.7851 9.5689 39.0963 10.0448C31.1772 11.4437 29.7404 14.3719 29.7404 19.7728V26.9046H48.453V29.2819H22.717C17.2789 29.2819 12.5168 32.5503 11.027 38.7704C9.30824 45.8977 9.23246 50.346 11.027 57.7885C12.3569 63.3289 15.5337 67.2756 20.9725 67.2756H27.4071V58.7259C27.4071 52.549 32.7504 47.1011 39.0971 47.1011H57.7885C62.9917 47.1011 67.1445 42.8164 67.1445 37.592V19.7736C67.1445 14.7016 62.8659 10.892 57.7885 10.0456C54.5724 9.51055 51.2372 9.26729 48.0385 9.28169ZM37.9187 15.0176C39.8511 15.0176 41.4304 16.6219 41.4304 18.5952C41.4304 20.5602 39.8519 22.1493 37.9187 22.1493C35.9787 22.1493 34.4077 20.5602 34.4077 18.5952C34.407 16.6219 35.9787 15.0176 37.9187 15.0176Z" fill="url(#paint0_linear_27_802)"/>
<path d="M69.4778 29.2819V37.592C69.4778 44.0335 64.0155 49.4556 57.7878 49.4556H39.0963C33.9765 49.4556 29.7404 53.838 29.7404 58.9654V76.7854C29.7404 81.8559 34.1493 84.8394 39.0963 86.2936C45.0194 88.0343 50.6999 88.3496 57.7878 86.2936C62.4983 84.9288 67.1437 82.184 67.1437 76.7854V69.6528H48.453V67.2748H76.5012C81.9392 67.2748 83.9671 63.482 85.8586 57.7878C87.8123 51.9261 87.7282 46.2887 85.8586 38.7697C84.5143 33.3551 81.9476 29.2811 76.5012 29.2811H69.4778V29.2819ZM58.9646 74.4073C60.9054 74.4073 62.4763 75.9965 62.4763 77.963C62.4763 79.9348 60.9046 81.5391 58.9646 81.5391C57.0322 81.5391 55.4537 79.9348 55.4537 77.963C55.4537 75.9965 57.0322 74.4073 58.9646 74.4073Z" fill="url(#paint1_linear_27_802)"/>
<path opacity="0.444" d="M73.742 90.6321C73.742 93.317 62.5142 95.4942 48.6652 95.4942C34.8154 95.4942 23.5876 93.317 23.5876 90.6321C23.5876 87.9464 34.8146 85.7692 48.6652 85.7692C62.5142 85.7692 73.742 87.9457 73.742 90.6321Z" fill="url(#paint2_radial_27_802)"/>
<defs>
<linearGradient id="paint0_linear_27_802" x1="7.83345" y1="11.5117" x2="50.9937" y2="48.3185" gradientUnits="userSpaceOnUse">
<stop stop-color="#5A9FD4"/>
<stop offset="1" stop-color="#306998"/>
</linearGradient>
<linearGradient id="paint1_linear_27_802" x1="67.2323" y1="71.1983" x2="51.7543" y2="49.4929" gradientUnits="userSpaceOnUse">
<stop stop-color="#FFD43B"/>
<stop offset="1" stop-color="#FFE873"/>
</linearGradient>
<radialGradient id="paint2_radial_27_802" cx="0" cy="0" r="1" gradientUnits="userSpaceOnUse" gradientTransform="translate(48.5638 90.4929) rotate(-90) scale(4.86388 21.3808)">
<stop stop-color="#B8B8B8" stop-opacity="0.498"/>
<stop offset="1" stop-color="#7F7F7F" stop-opacity="0"/>
</radialGradient>
</defs>
</svg>
