<svg width="99" height="97" viewBox="0 0 99 97" fill="none" xmlns="http://www.w3.org/2000/svg">
<path d="M1.54688 48.4318V95.7951H98.2266V1.06852H1.54688V48.4318ZM79.4552 44.6427C81.7708 45.1692 83.8754 46.3559 85.5035 48.0529C86.3998 48.9672 87.179 49.9851 87.8238 51.0841C87.8238 51.2054 83.6473 53.9714 81.1027 55.5173C81.0098 55.578 80.6386 55.1839 80.2287 54.5852C79.7642 53.7999 79.1041 53.1427 78.3102 52.6749C77.5163 52.2071 76.6144 51.944 75.6886 51.9102C72.7573 51.7131 70.8701 53.2212 70.8855 55.6992C70.8613 56.3162 71.0055 56.9283 71.3032 57.4725C71.9452 58.7835 73.144 59.5641 76.9029 61.1555C83.8252 64.073 86.7874 65.9979 88.6282 68.7336C90.6855 71.7648 91.1419 76.6603 89.7497 80.2827C88.2028 84.2233 84.413 86.8984 79.053 87.785C76.605 88.0597 74.1315 88.0343 71.6899 87.7092C67.9636 87.1169 64.5262 85.3786 61.875 82.7455C60.9855 81.7831 59.253 79.2748 59.3613 79.0929C59.6437 78.8875 59.941 78.7026 60.2508 78.5397L63.8086 76.5391L66.5852 74.9628L67.1653 75.804C68.1443 77.1761 69.3901 78.3453 70.8314 79.2445C73.9252 80.8359 78.1481 80.6161 80.2364 78.7746C80.9375 78.0998 81.375 77.2055 81.4725 76.2473C81.57 75.2891 81.3214 74.3277 80.7701 73.5305C79.9966 72.4772 78.4498 71.5905 74.1262 69.7415C69.1376 67.6348 66.9874 66.3313 65.0229 64.2549C63.7965 62.8847 62.891 61.2681 62.37 59.5186C61.9814 57.5198 61.9239 55.4728 62.1998 53.4561C63.2285 48.7349 66.8405 45.4384 72.1153 44.4609C74.5582 44.1647 77.0326 44.2311 79.4552 44.6579V44.6427ZM56.7626 48.6137V52.4937H44.2097V87.5273H35.3074V52.4861H22.7236V48.697C22.6898 47.3926 22.726 46.0874 22.8319 44.7867C22.8783 44.7261 30.5663 44.6958 39.8475 44.7109H56.7162L56.7626 48.6137Z" fill="#007ACC"/>
</svg>
