<svg width="39" height="39" viewBox="0 0 39 39" fill="none" xmlns="http://www.w3.org/2000/svg">
<path d="M31.5385 14.2885C31.5385 22.4808 19.25 32.0385 19.25 32.0385C19.25 32.0385 6.96155 22.4808 6.96155 14.2885C6.96155 7.59535 12.5569 2 19.25 2C25.9431 2 31.5385 7.59535 31.5385 14.2885Z" stroke="#F43F5E" stroke-width="3" stroke-linecap="round" stroke-linejoin="round"/>
<path d="M19.25 18.3847C21.5122 18.3847 23.3461 16.5508 23.3461 14.2885C23.3461 12.0263 21.5122 10.1924 19.25 10.1924C16.9877 10.1924 15.1538 12.0263 15.1538 14.2885C15.1538 16.5508 16.9877 18.3847 19.25 18.3847Z" stroke="#F43F5E" stroke-width="3" stroke-linecap="round" stroke-linejoin="round"/>
<path d="M30.3842 27.9424H32.9038L37 37.5001H1.5L5.59615 27.9424H8.11583" stroke="#F43F5E" stroke-width="3" stroke-linecap="round" stroke-linejoin="round"/>
</svg>
